<svg xmlns="http://www.w3.org/2000/svg" xmlns:xlink="http://www.w3.org/1999/xlink" width="600" zoomAndPan="magnify" viewBox="0 0 450 149.999998" height="200" preserveAspectRatio="xMidYMid meet" version="1.0"><defs><g/></defs><g fill="#ffffff" fill-opacity="1"><g transform="translate(57.923457, 94.753647)"><g><path d="M 4.3125 -2.359375 L 4.886719 -0.574219 L 6.554688 0.171875 L 7.707031 0 L 9.546875 0.171875 L 10.464844 0.0585938 L 12.191406 0.0585938 L 14.03125 -0.519531 L 14.550781 -2.183594 L 14.550781 -4.140625 L 14.664062 -5.175781 L 14.492188 -6.382812 L 14.605469 -10.0625 L 15.125 -11.214844 L 16.21875 -11.847656 L 19.554688 -11.386719 L 20.703125 -10.410156 L 21.394531 -9.257812 L 21.855469 -8.222656 L 23.0625 -6.5 L 24.152344 -4.429688 L 24.785156 -3.566406 L 25.246094 -2.414062 L 25.878906 -1.4375 L 27.144531 -0.402344 L 29.101562 0.113281 L 33.644531 0.0585938 L 34.734375 0.171875 L 36.632812 0.113281 L 37.726562 -0.402344 L 38.070312 -1.667969 L 37.4375 -2.933594 L 36.75 -3.738281 L 36.289062 -4.832031 L 34.332031 -7.765625 L 33.816406 -8.800781 L 31.976562 -11.789062 L 31.285156 -12.652344 L 31.226562 -14.03125 L 31.746094 -15.296875 L 32.550781 -16.160156 L 33.355469 -16.851562 L 35.597656 -20.875 L 36.347656 -24.210938 L 36.230469 -27.835938 L 36.058594 -28.984375 L 35.023438 -32.261719 L 34.5625 -33.242188 L 33.929688 -34.160156 L 30.652344 -37.609375 L 28.640625 -38.703125 L 26.453125 -39.453125 L 23.175781 -40.199219 L 21.335938 -40.257812 L 19.667969 -40.140625 L 16.21875 -40.140625 L 15.066406 -40.371094 L 13.917969 -40.371094 L 12.882812 -40.085938 L 11.730469 -40.085938 L 10.582031 -40.3125 L 9.316406 -40.371094 L 5.921875 -40.085938 L 4.886719 -39.507812 L 4.199219 -37.898438 L 4.253906 -24.730469 L 4.371094 -23.578125 L 4.199219 -21.277344 L 4.253906 -20.011719 L 4.253906 -18.863281 L 4.371094 -17.769531 L 4.253906 -16.679688 L 4.199219 -12.019531 L 4.3125 -10.871094 Z M 16.21875 -21.046875 L 15.066406 -21.679688 L 14.605469 -22.601562 L 14.605469 -26.050781 L 14.492188 -27.03125 L 14.605469 -29.445312 L 15.125 -30.539062 L 16.332031 -30.996094 L 17.484375 -30.941406 L 19.785156 -31.171875 L 21.394531 -30.824219 L 22.890625 -30.710938 L 23.980469 -30.421875 L 25.417969 -28.640625 L 25.765625 -27.71875 L 25.996094 -26.222656 L 25.820312 -24.5 L 25.304688 -23.347656 L 24.671875 -22.484375 L 24.039062 -21.96875 L 23.003906 -21.507812 L 21.335938 -21.105469 L 20.242188 -21.046875 L 17.484375 -21.164062 Z M 16.21875 -21.046875 "/></g></g></g><g fill="#ffffff" fill-opacity="1"><g transform="translate(97.829626, 94.753647)"><g><path d="M 20.011719 0.171875 L 28.238281 0.0585938 L 29.445312 -0.460938 L 30.078125 -1.667969 L 30.078125 -7.476562 L 29.445312 -8.625 L 28.238281 -9.144531 L 26.914062 -9.027344 L 25.820312 -9.203125 L 22.890625 -9.257812 L 20.992188 -9.027344 L 19.839844 -9.144531 L 18.574219 -9.085938 L 17.484375 -9.257812 L 16.21875 -9.144531 L 15.011719 -9.71875 L 14.550781 -10.753906 L 14.550781 -14.378906 L 15.066406 -15.585938 L 16.101562 -16.21875 L 17.828125 -16.273438 L 19.667969 -16.101562 L 21.855469 -16.21875 L 24.210938 -16.160156 L 25.363281 -16.273438 L 26.683594 -16.21875 L 27.835938 -16.679688 L 28.238281 -17.828125 L 28.410156 -23.003906 L 27.835938 -24.613281 L 26.511719 -25.363281 L 23.117188 -25.363281 L 21.910156 -25.246094 L 19.496094 -25.417969 L 16.160156 -25.304688 L 14.953125 -25.820312 L 14.492188 -27.605469 L 14.492188 -29.386719 L 15.011719 -30.480469 L 16.273438 -30.941406 L 17.367188 -30.882812 L 18.460938 -31.113281 L 26.683594 -30.996094 L 27.777344 -31.054688 L 28.984375 -31.746094 L 29.558594 -32.78125 L 29.503906 -33.929688 L 29.558594 -35.082031 L 29.445312 -38.53125 L 28.925781 -39.625 L 27.777344 -40.085938 L 26.570312 -40.085938 L 25.535156 -40.3125 L 20.875 -40.257812 L 19.609375 -40.140625 L 18.460938 -40.257812 L 17.484375 -40.199219 L 16.332031 -40.3125 L 11.617188 -40.199219 L 10.464844 -40.371094 L 9.375 -40.140625 L 8.339844 -40.257812 L 7.1875 -40.140625 L 6.039062 -40.199219 L 4.832031 -39.738281 L 4.199219 -38.53125 L 4.3125 -36.347656 L 4.140625 -33.988281 L 4.3125 -32.722656 L 4.199219 -27.085938 L 4.371094 -25.878906 L 4.253906 -24.785156 L 4.199219 -20.070312 L 4.371094 -19.035156 L 4.3125 -9.71875 L 4.199219 -8.625 L 4.371094 -7.476562 L 4.199219 -3.507812 L 4.3125 -2.242188 L 4.773438 -0.691406 L 6.5 0.0585938 L 10.640625 0.113281 L 11.90625 0 L 12.941406 0.0585938 L 15.296875 -0.113281 L 16.390625 0.113281 L 17.714844 0.171875 L 18.863281 0.0585938 Z M 20.011719 0.171875 "/></g></g></g><g fill="#ffffff" fill-opacity="1"><g transform="translate(130.778091, 94.753647)"><g><path d="M 1.4375 -1.554688 L 1.667969 -0.34375 L 2.816406 0.171875 L 15.46875 0.230469 L 16.734375 0 L 17.828125 0.0585938 L 18.804688 0.230469 L 20.011719 0.113281 L 21.222656 0.113281 L 22.371094 -0.0585938 L 23.464844 0.171875 L 24.730469 0.0585938 L 30.539062 0.0585938 L 31.574219 -0.0585938 L 32.722656 -0.632812 L 33.296875 -1.609375 L 33.242188 -2.761719 L 33.355469 -3.96875 L 33.355469 -6.382812 L 33.242188 -7.417969 L 32.78125 -8.511719 L 31.574219 -9.085938 L 30.25 -9.144531 L 29.042969 -9.085938 L 27.949219 -9.203125 L 22.027344 -9.257812 L 20.992188 -9.144531 L 19.785156 -9.203125 L 18.632812 -9.144531 L 17.65625 -9.71875 L 17.539062 -10.695312 L 18.230469 -11.558594 L 18.804688 -12.59375 L 19.265625 -13.800781 L 19.839844 -14.722656 L 20.414062 -15.871094 L 21.277344 -17.195312 L 23.75 -21.855469 L 24.441406 -22.832031 L 26.167969 -26.109375 L 26.683594 -26.855469 L 27.71875 -29.101562 L 28.410156 -30.078125 L 32.894531 -38.417969 L 32.492188 -39.679688 L 31.34375 -40.085938 L 30.25 -40.199219 L 26.855469 -40.085938 L 25.363281 -40.257812 L 16.851562 -40.199219 L 15.699219 -40.371094 L 14.492188 -40.199219 L 10.007812 -40.199219 L 8.800781 -40.3125 L 7.765625 -40.199219 L 5.347656 -40.199219 L 4.253906 -40.3125 L 3.335938 -39.738281 L 2.589844 -38.53125 L 2.703125 -37.324219 L 2.644531 -32.609375 L 3.277344 -31.515625 L 5.003906 -31.054688 L 6.671875 -31.054688 L 7.820312 -30.882812 L 8.914062 -31.054688 L 15.816406 -30.996094 L 16.5625 -30.480469 L 16.449219 -29.386719 L 9.375 -16.273438 L 8.683594 -15.238281 L 7.648438 -13.167969 L 6.957031 -12.25 L 5.921875 -10.0625 L 4.714844 -8.167969 L 3.21875 -5.117188 L 2.472656 -4.082031 L 1.898438 -2.933594 Z M 1.4375 -1.554688 "/></g></g></g><g fill="#ffffff" fill-opacity="1"><g transform="translate(166.256628, 94.753647)"><g><path d="M 33.929688 0.113281 L 36.117188 -0.0585938 L 37.207031 0.0585938 L 38.992188 0 L 40.601562 -0.289062 L 40.773438 -1.667969 L 40.371094 -2.992188 L 39.507812 -5.117188 L 37.957031 -8.109375 L 37.152344 -10.238281 L 36 -12.308594 L 33.816406 -17.539062 L 33.242188 -18.402344 L 32.664062 -19.496094 L 32.320312 -20.761719 L 31.800781 -21.625 L 31.457031 -22.542969 L 30.25 -24.671875 L 29.847656 -25.878906 L 26.050781 -33.875 L 25.707031 -35.023438 L 25.074219 -36.058594 L 24.730469 -37.09375 L 23.636719 -39.105469 L 22.660156 -40.140625 L 20.761719 -40.714844 L 18.921875 -40.085938 L 17.886719 -39.105469 L 17.367188 -38.128906 L 16.964844 -36.980469 L 16.449219 -36.171875 L 14.148438 -30.882812 L 13.515625 -30.019531 L 13.226562 -28.871094 L 12.59375 -27.777344 L 12.25 -26.742188 L 6.382812 -14.433594 L 6.039062 -13.167969 L 5.464844 -12.308594 L 5.0625 -11.15625 L 4.027344 -9.316406 L 3.164062 -7.015625 L 2.53125 -6.210938 L 2.242188 -5.175781 L 1.09375 -2.875 L 0.746094 -1.726562 L 1.035156 -0.289062 L 2.183594 0.0585938 L 4.429688 -0.0585938 L 5.578125 0.0585938 L 8.800781 -0.0585938 L 10.121094 -0.460938 L 11.214844 -1.496094 L 12.25 -3.394531 L 13.34375 -4.484375 L 14.550781 -5.117188 L 15.640625 -4.945312 L 18.058594 -5.175781 L 19.09375 -5.003906 L 24.730469 -5.0625 L 25.765625 -4.945312 L 27.03125 -5.117188 L 28.292969 -4.484375 L 29.386719 -3.566406 L 29.90625 -2.472656 L 30.25 -1.4375 L 31.398438 -0.574219 L 32.722656 0 Z M 20.875 -14.203125 L 19.726562 -14.433594 L 18.402344 -14.320312 L 17.484375 -14.722656 L 17.425781 -15.816406 L 20.128906 -22.027344 L 20.761719 -22.542969 L 21.566406 -22.082031 L 24.269531 -15.757812 L 24.039062 -14.722656 L 23.175781 -14.261719 Z M 20.875 -14.203125 "/></g></g></g><g fill="#ffffff" fill-opacity="1"><g transform="translate(208.002846, 94.753647)"><g><path d="M 4.3125 -1.78125 L 5.003906 -0.519531 L 5.921875 0 L 7.246094 0 L 8.453125 0.171875 L 9.605469 0.171875 L 10.8125 0 L 21.164062 -0.0585938 L 24.84375 -0.574219 L 28.179688 -1.609375 L 33.066406 -4.886719 L 35.367188 -7.535156 L 37.152344 -10.410156 L 37.4375 -11.5 L 38.015625 -12.59375 L 38.242188 -13.746094 L 38.644531 -14.78125 L 38.820312 -15.988281 L 39.105469 -17.195312 L 39.050781 -18.171875 L 39.277344 -21.855469 L 38.417969 -25.132812 L 38.300781 -26.339844 L 38.015625 -27.375 L 37.152344 -29.675781 L 35.828125 -31.628906 L 35.367188 -32.609375 L 33.875 -34.390625 L 32.894531 -35.136719 L 31.285156 -36.691406 L 29.15625 -38.015625 L 28.007812 -38.589844 L 24.84375 -39.625 L 22.484375 -40.085938 L 14.320312 -40.140625 L 13.167969 -40.257812 L 9.488281 -40.140625 L 8.339844 -40.257812 L 7.304688 -40.199219 L 6.097656 -40.257812 L 5.0625 -39.625 L 4.199219 -38.53125 L 4.199219 -36.171875 L 4.3125 -35.023438 L 4.253906 -33.875 L 4.371094 -31.6875 L 4.199219 -30.421875 L 4.371094 -29.273438 L 4.199219 -28.121094 L 4.429688 -23.519531 L 4.253906 -21.335938 L 4.429688 -18.863281 L 4.253906 -17.769531 L 4.429688 -16.5625 L 4.253906 -14.320312 L 4.371094 -9.71875 L 4.253906 -8.570312 L 4.429688 -3.96875 Z M 16.503906 -9.257812 L 15.125 -9.777344 L 14.605469 -11.042969 L 14.722656 -12.191406 L 14.492188 -13.226562 L 14.664062 -14.378906 L 14.664062 -29.15625 L 15.355469 -30.191406 L 17.023438 -30.824219 L 18.230469 -30.765625 L 19.4375 -30.824219 L 21.164062 -30.710938 L 23.464844 -30.019531 L 25.417969 -28.753906 L 26.855469 -27.144531 L 27.488281 -26.050781 L 28.238281 -25.132812 L 28.925781 -21.738281 L 29.101562 -19.957031 L 28.8125 -17.136719 L 28.46875 -16.046875 L 27.605469 -13.976562 L 26.855469 -12.941406 L 26.109375 -12.132812 L 25.417969 -11.214844 L 24.5 -10.640625 L 23.347656 -10.0625 L 21.277344 -9.488281 Z M 16.503906 -9.257812 "/></g></g></g><g fill="#ffffff" fill-opacity="1"><g transform="translate(249.806552, 94.753647)"><g><path d="M 4.140625 -1.667969 L 4.886719 -0.574219 L 5.980469 0.0585938 L 18.976562 -0.0585938 L 20.011719 0.113281 L 23.519531 -0.0585938 L 27.03125 0.171875 L 28.121094 0.0585938 L 29.328125 -0.519531 L 29.847656 -1.609375 L 29.960938 -2.703125 L 29.90625 -6.269531 L 30.019531 -7.359375 L 29.273438 -8.511719 L 27.546875 -9.085938 L 19.957031 -9.203125 L 18.863281 -9.027344 L 17.597656 -9.144531 L 16.332031 -9.027344 L 15.125 -9.71875 L 14.605469 -11.5 L 14.664062 -14.320312 L 15.183594 -15.527344 L 16.21875 -16.160156 L 18.460938 -16.160156 L 19.609375 -16.273438 L 22.660156 -16.101562 L 24.210938 -16.21875 L 25.417969 -16.101562 L 26.453125 -16.160156 L 27.605469 -16.792969 L 28.179688 -17.886719 L 28.292969 -22.429688 L 28.179688 -23.578125 L 27.660156 -24.671875 L 26.683594 -25.304688 L 24.382812 -25.363281 L 23.234375 -25.246094 L 22.027344 -25.246094 L 20.703125 -25.363281 L 16.160156 -25.304688 L 15.183594 -25.9375 L 14.492188 -26.972656 L 14.378906 -28.753906 L 14.953125 -30.421875 L 16.734375 -30.941406 L 27.777344 -30.996094 L 28.984375 -31.628906 L 29.617188 -32.664062 L 29.503906 -35.023438 L 29.328125 -36.117188 L 29.386719 -37.382812 L 29.558594 -38.472656 L 28.984375 -39.625 L 27.777344 -40.140625 L 23.175781 -40.199219 L 22.140625 -40.085938 L 20.992188 -40.257812 L 18.460938 -40.140625 L 17.308594 -40.257812 L 15.066406 -40.199219 L 14.03125 -40.3125 L 6.5 -40.140625 L 4.832031 -39.738281 L 4.253906 -38.472656 L 4.371094 -36.171875 L 4.140625 -34.503906 L 4.371094 -31.574219 L 4.253906 -30.363281 L 4.371094 -29.328125 L 4.371094 -19.035156 L 4.199219 -17.828125 L 4.371094 -15.585938 L 4.253906 -13.285156 L 4.429688 -12.078125 L 4.3125 -10.8125 L 4.371094 -9.71875 L 4.199219 -8.683594 L 4.3125 -7.359375 L 4.3125 -6.210938 L 4.429688 -3.96875 L 4.371094 -2.816406 Z M 4.140625 -1.667969 "/></g></g></g><g fill="#ffffff" fill-opacity="1"><g transform="translate(282.755018, 94.753647)"><g><path d="M 16.21875 -1.035156 L 17.136719 0 L 18.519531 0.519531 L 19.667969 0.632812 L 21.222656 -0.0585938 L 22.199219 -0.976562 L 22.542969 -2.070312 L 23.519531 -4.3125 L 24.039062 -5.40625 L 24.613281 -6.382812 L 25.535156 -8.453125 L 25.878906 -9.488281 L 29.328125 -16.851562 L 30.019531 -19.09375 L 31.226562 -21.164062 L 31.859375 -23.347656 L 32.492188 -24.5 L 32.78125 -25.476562 L 33.066406 -26.570312 L 33.875 -27.605469 L 34.160156 -28.695312 L 34.910156 -29.558594 L 35.769531 -31.800781 L 36.058594 -32.839844 L 36.691406 -33.816406 L 37.09375 -34.964844 L 37.667969 -36.058594 L 37.898438 -37.035156 L 38.472656 -38.417969 L 38.128906 -39.855469 L 37.152344 -40.199219 L 30.363281 -40.199219 L 29.042969 -39.738281 L 28.007812 -38.644531 L 27.71875 -37.609375 L 20.875 -20.761719 L 20.300781 -19.667969 L 20.011719 -18.632812 L 19.324219 -17.597656 L 18.632812 -17.484375 L 18.171875 -18.519531 L 17.425781 -20.703125 L 16.964844 -21.738281 L 16.621094 -22.890625 L 16.21875 -23.808594 L 15.585938 -24.84375 L 14.894531 -27.144531 L 14.378906 -28.066406 L 13.976562 -29.101562 L 13.746094 -30.25 L 11.730469 -34.390625 L 11.558594 -35.484375 L 10.984375 -36.574219 L 10.582031 -37.609375 L 10.0625 -38.53125 L 9.085938 -39.679688 L 7.765625 -40.140625 L 4.542969 -40.3125 L 3.566406 -40.199219 L 2.53125 -40.3125 L 1.324219 -40.257812 L 0.113281 -39.738281 L 0 -38.472656 L 0.230469 -37.09375 L 0.746094 -36.058594 L 1.609375 -33.875 L 2.128906 -32.839844 L 2.472656 -31.800781 L 3.105469 -30.710938 L 4.027344 -28.46875 L 4.601562 -27.433594 L 6.324219 -23.234375 L 6.902344 -22.3125 L 10.695312 -13.746094 L 10.984375 -12.765625 L 11.960938 -10.695312 L 12.308594 -9.605469 L 13.800781 -6.269531 L 14.378906 -5.40625 L 14.664062 -4.199219 Z M 16.21875 -1.035156 "/></g></g></g><g fill="#ffffff" fill-opacity="1"><g transform="translate(321.511141, 94.753647)"><g><path d="M 16.679688 0.632812 L 18.574219 0.746094 L 20.761719 0.574219 L 23.464844 0 L 25.589844 -0.804688 L 28.753906 -2.53125 L 29.558594 -3.394531 L 31.515625 -6.039062 L 32.722656 -8.167969 L 33.242188 -10.292969 L 33.414062 -28.640625 L 32.953125 -30.996094 L 32.433594 -32.089844 L 32.03125 -33.242188 L 30.996094 -35.023438 L 30.136719 -35.945312 L 29.617188 -36.804688 L 28.695312 -37.609375 L 25.648438 -39.335938 L 24.671875 -39.796875 L 23.464844 -40.199219 L 21.277344 -40.660156 L 16.734375 -40.832031 L 12.132812 -39.855469 L 11.097656 -39.453125 L 10.179688 -38.820312 L 9.085938 -38.242188 L 7.359375 -36.75 L 6.613281 -35.886719 L 5.75 -35.082031 L 5.234375 -34.160156 L 4.773438 -33.125 L 3.394531 -28.695312 L 3.335938 -25.304688 L 3.566406 -24.039062 L 3.277344 -20.644531 L 3.507812 -19.496094 L 3.335938 -18.34375 L 3.507812 -17.195312 L 3.566406 -10.238281 L 4.140625 -8.050781 L 4.714844 -7.015625 L 5.117188 -6.039062 L 6.554688 -4.253906 L 7.304688 -3.394531 L 8.222656 -2.589844 L 9.257812 -2.011719 L 10.0625 -1.378906 L 11.214844 -0.746094 L 14.320312 0.230469 Z M 20.242188 -8.742188 L 18.402344 -8.511719 L 16.679688 -8.683594 L 15.46875 -9.085938 L 14.664062 -9.605469 L 13.976562 -10.523438 L 13.570312 -11.675781 L 13.113281 -13.457031 L 13.113281 -26.855469 L 13.398438 -28.523438 L 13.976562 -29.617188 L 14.722656 -30.421875 L 16.621094 -31.457031 L 20.128906 -31.515625 L 21.222656 -31.113281 L 22.199219 -30.421875 L 22.832031 -29.503906 L 23.234375 -28.46875 L 23.519531 -26.800781 L 23.75 -24.039062 L 23.519531 -19.496094 L 23.75 -18.460938 L 23.578125 -17.308594 L 23.519531 -16.160156 L 23.695312 -15.183594 L 23.636719 -13.457031 L 23.347656 -11.675781 L 23.003906 -10.640625 L 22.140625 -9.71875 L 21.277344 -9.144531 Z M 20.242188 -8.742188 "/></g></g></g><g fill="#ffffff" fill-opacity="1"><g transform="translate(358.427215, 94.753647)"><g><path d="M 16.90625 0.921875 L 18.691406 0.863281 L 19.957031 0.632812 L 23.175781 -0.460938 L 25.1875 -1.609375 L 27.144531 -3.046875 L 30.136719 -7.992188 L 30.652344 -10.351562 L 30.941406 -13.113281 L 30.941406 -14.953125 L 30.710938 -16.046875 L 30.652344 -17.253906 L 29.328125 -20.414062 L 28.695312 -21.449219 L 27.605469 -22.773438 L 26.222656 -23.75 L 25.363281 -24.441406 L 24.210938 -24.902344 L 23.347656 -25.363281 L 20.933594 -26.050781 L 18.804688 -26.398438 L 14.148438 -26.398438 L 12.996094 -27.085938 L 12.59375 -28.351562 L 12.535156 -29.558594 L 13.054688 -30.824219 L 14.148438 -31.398438 L 24.84375 -31.34375 L 25.9375 -31.515625 L 27.085938 -31.515625 L 28.351562 -32.03125 L 28.984375 -33.183594 L 28.984375 -34.101562 L 29.15625 -35.714844 L 28.984375 -37.4375 L 29.101562 -38.53125 L 28.410156 -39.738281 L 27.316406 -40.140625 L 10.179688 -40.3125 L 9.085938 -40.140625 L 6.097656 -40.199219 L 4.601562 -39.566406 L 4.082031 -38.53125 L 4.027344 -37.4375 L 3.796875 -36.230469 L 3.851562 -35.082031 L 4.027344 -33.988281 L 3.796875 -29.503906 L 3.96875 -28.351562 L 3.910156 -27.257812 L 3.96875 -24.960938 L 3.910156 -23.925781 L 4.027344 -22.890625 L 3.910156 -21.738281 L 3.910156 -20.472656 L 4.027344 -19.4375 L 4.484375 -18.460938 L 5.578125 -17.886719 L 6.84375 -17.828125 L 7.820312 -18 L 9.027344 -18 L 10.238281 -18.171875 L 11.445312 -18.171875 L 12.535156 -18.058594 L 13.746094 -18.117188 L 17.023438 -17.65625 L 18.117188 -17.253906 L 20.070312 -15.929688 L 20.53125 -14.953125 L 20.875 -13.113281 L 20.761719 -11.273438 L 20.1875 -10.238281 L 19.496094 -9.429688 L 18.519531 -8.742188 L 16.734375 -8.394531 L 15.011719 -8.625 L 13.800781 -9.027344 L 12.882812 -9.605469 L 12.308594 -10.582031 L 11.558594 -11.675781 L 9.71875 -12.25 L 4.484375 -12.308594 L 3.507812 -11.675781 L 2.992188 -10.464844 L 3.507812 -8.28125 L 4.082031 -7.1875 L 4.886719 -5.0625 L 5.578125 -4.199219 L 8.109375 -1.726562 L 9.605469 -0.746094 L 11.386719 0 L 13.6875 0.632812 Z M 16.90625 0.921875 "/></g></g></g></svg>